<svg xmlns="http://www.w3.org/2000/svg" viewBox="0 0 513 152" width="200" height="59">
	<defs>
		<linearGradient id="grd1" gradientUnits="userSpaceOnUse"  x1="3" y1="14.659" x2="107" y2="14.659">
			<stop offset="0" stop-color="#00b9f2"  />
			<stop offset="1" stop-color="#5ca139"  />
		</linearGradient>
	</defs>
	<style>
		tspan { white-space:pre }
		.shp0 { fill: #444f60 } 
		.shp1 { fill: url(#grd1) } 
		.shp2 { fill: #0eb6dc } 
	</style>
	<g id="&lt;Group&gt;">
		<path id="&lt;Path&gt;" class="shp0" d="M96.15 70.35L65.85 52.86C62.49 50.92 58.74 49.95 55 49.95C51.25 49.95 47.51 50.92 44.15 52.86L32.78 59.42L45.82 66.95L50.67 64.15C51.99 63.39 53.48 62.99 55 62.99C56.52 62.99 58.01 63.39 59.33 64.15L89.63 81.64C92.3 83.18 93.96 86.06 93.96 89.15L93.96 94.28C93.96 97.36 92.3 100.24 89.63 101.78L59.33 119.27C58.01 120.03 56.52 120.43 55 120.43C53.48 120.43 51.99 120.03 50.67 119.27L20.37 101.78C17.7 100.24 16.04 97.37 16.04 94.28L16.04 91.28C10 88.32 5.98 85.47 3.98 82.72C3.34 84.78 3 86.94 3 89.15L3 94.28C3 102.03 7.13 109.19 13.85 113.07L44.15 130.56C47.51 132.5 51.25 133.47 55 133.47C58.74 133.47 62.49 132.5 65.85 130.56L96.15 113.07C102.86 109.19 107 102.03 107 94.28L107 89.15C107 81.39 102.86 74.23 96.15 70.35Z" />
		<path id="&lt;Path&gt;" class="shp1" d="M96.15 38.4L65.85 20.91C62.49 18.97 58.75 18 55 18C51.26 18 47.51 18.97 44.15 20.91L13.85 38.4C7.14 42.28 3 49.44 3 57.19L3 62.33C3 70.08 7.14 77.24 13.85 81.12L44.15 98.61C47.51 100.55 51.26 101.52 55 101.52C58.75 101.52 62.49 100.55 65.85 98.61L77.22 92.05L64.18 84.52L59.33 87.32C58.01 88.08 56.52 88.48 55 88.48C53.48 88.48 51.99 88.08 50.67 87.32L20.37 69.83C17.7 68.29 16.04 65.41 16.04 62.33L16.04 57.19C16.04 54.11 17.7 51.23 20.37 49.69L50.67 32.2C51.99 31.44 53.48 31.04 55 31.04C56.52 31.04 58.01 31.44 59.33 32.2L89.63 49.69C92.3 51.23 93.96 54.11 93.96 57.19L93.96 60.19C100 63.15 104.02 66 106.02 68.75C106.66 66.69 107 64.54 107 62.33L107 57.19C107 49.44 102.87 42.28 96.15 38.4Z" />
		<g id="&lt;Group&gt;">
			<path id="ShipEntegra " fill-rule="evenodd" class="shp2" d="M152.19 85.88C152.19 83.29 151.49 81.31 150.09 79.93C148.69 78.55 146.16 77.21 142.5 75.9C138.84 74.59 136.04 73.23 134.09 71.8C132.16 70.35 130.71 68.71 129.74 66.88C128.79 65.03 128.31 62.91 128.31 60.54C128.31 56.43 129.68 53.04 132.41 50.38C135.17 47.72 138.77 46.39 143.21 46.39C146.25 46.39 148.96 47.08 151.34 48.46C153.71 49.81 155.54 51.7 156.83 54.12C158.11 56.55 158.75 59.21 158.75 62.11L152.19 62.11C152.19 58.9 151.42 56.42 149.88 54.66C148.33 52.9 146.11 52.02 143.21 52.02C140.57 52.02 138.53 52.76 137.08 54.23C135.63 55.7 134.91 57.77 134.91 60.43C134.91 62.62 135.69 64.45 137.26 65.92C138.83 67.39 141.25 68.71 144.53 69.88C149.64 71.57 153.28 73.65 155.47 76.12C157.68 78.59 158.79 81.82 158.79 85.81C158.79 90.02 157.42 93.39 154.69 95.93C151.96 98.45 148.24 99.71 143.53 99.71C140.51 99.71 137.72 99.06 135.16 97.75C132.61 96.42 130.6 94.57 129.13 92.19C127.68 89.79 126.96 87.05 126.96 83.96L133.52 83.96C133.52 87.17 134.41 89.66 136.19 91.44C138 93.23 140.44 94.12 143.53 94.12C146.4 94.12 148.57 93.38 150.02 91.91C151.47 90.44 152.19 88.43 152.19 85.88ZM174.88 44.25L174.88 64.39C177.28 61.28 180.34 59.72 184.07 59.72C190.89 59.72 194.35 64.27 194.45 73.37L194.45 99L188.17 99L188.17 73.66C188.17 70.64 187.66 68.5 186.64 67.24C185.64 65.96 184.13 65.32 182.11 65.32C180.54 65.32 179.13 65.84 177.87 66.88C176.64 67.93 175.64 69.29 174.88 70.98L174.88 99L168.57 99L168.57 44.25L174.88 44.25ZM212.75 60.43L212.75 99L206.44 99L206.44 60.43L212.75 60.43ZM213.24 50.2C213.24 51.27 212.94 52.17 212.35 52.88C211.76 53.59 210.85 53.95 209.64 53.95C208.45 53.95 207.56 53.59 206.97 52.88C206.38 52.17 206.08 51.27 206.08 50.2C206.08 49.13 206.38 48.23 206.97 47.49C207.56 46.76 208.45 46.39 209.64 46.39C210.83 46.39 211.73 46.77 212.32 47.53C212.93 48.26 213.24 49.15 213.24 50.2ZM252.65 77.36L252.65 81.57C252.65 87.68 251.54 92.23 249.33 95.22C247.14 98.21 244.04 99.71 240.03 99.71C236.16 99.71 233.17 98.25 231.08 95.33L231.08 113.83L224.81 113.83L224.81 60.43L230.51 60.43L230.83 64.71C232.94 61.38 235.97 59.72 239.92 59.72C244.15 59.72 247.31 61.19 249.4 64.14C251.49 67.09 252.58 71.49 252.65 77.36ZM246.37 81.82L246.37 77.97C246.37 73.64 245.71 70.46 244.38 68.42C243.05 66.35 240.91 65.32 237.96 65.32C234.94 65.32 232.65 66.83 231.08 69.84L231.08 89.91C232.63 92.86 234.94 94.33 238.03 94.33C240.88 94.33 242.98 93.31 244.31 91.27C245.66 89.2 246.35 86.05 246.37 81.82Z" />
			<path id="ShipEntegra " fill-rule="evenodd" class="shp0" d="M289.16 68.1L289.16 76.54L272.83 76.54L272.83 90.3L292.15 90.3L292.15 99L262.36 99L262.36 47.1L292.08 47.1L292.08 55.83L272.83 55.83L272.83 68.1L289.16 68.1ZM299.55 60.43L309.03 60.43L309.31 64.25C311.59 61.23 314.57 59.72 318.26 59.72C324.89 59.72 328.3 64.37 328.49 73.66L328.49 99L318.37 99L318.37 74.41C318.37 72.22 318.04 70.64 317.37 69.66C316.73 68.67 315.59 68.17 313.95 68.17C312.12 68.17 310.69 69.11 309.67 70.98L309.67 99L299.55 99L299.55 60.43ZM339.48 50.95L349.57 50.95L349.57 60.43L354.74 60.43L354.74 68.02L349.57 68.02L349.57 87.17C349.57 88.69 349.77 89.73 350.18 90.3C350.61 90.87 351.41 91.16 352.6 91.16C353.57 91.16 354.37 91.08 354.99 90.91L354.92 98.75C353.21 99.39 351.35 99.71 349.36 99.71C342.85 99.71 339.55 95.98 339.48 88.52L339.48 68.02L335.03 68.02L335.03 60.43L339.48 60.43L339.48 50.95ZM377.96 99.71C372.78 99.71 368.74 98.17 365.84 95.08C362.94 91.99 361.49 87.57 361.49 81.82L361.49 78.75C361.49 72.67 362.82 67.98 365.48 64.67C368.14 61.37 371.95 59.72 376.92 59.72C381.77 59.72 385.42 61.28 387.87 64.39C390.32 67.48 391.56 72.06 391.61 78.15L391.61 83.1L371.54 83.1C371.68 85.95 372.31 88.05 373.43 89.38C374.55 90.69 376.27 91.34 378.6 91.34C381.97 91.34 384.79 90.19 387.05 87.88L391 93.97C389.77 95.68 387.97 97.07 385.62 98.14C383.27 99.19 380.71 99.71 377.96 99.71ZM371.61 76.04L381.7 76.04L381.7 75.12C381.65 72.81 381.27 71.07 380.56 69.88C379.85 68.69 378.61 68.1 376.85 68.1C375.09 68.1 373.81 68.73 373 69.99C372.22 71.24 371.76 73.26 371.61 76.04ZM398.22 81.39L398.22 78.54C398.22 72.22 399.36 67.5 401.64 64.39C403.92 61.28 407.12 59.72 411.23 59.72C414.72 59.72 417.42 61.1 419.32 63.85L419.71 60.43L428.8 60.43L428.8 99C428.8 103.92 427.42 107.69 424.66 110.3C421.91 112.89 417.95 114.18 412.8 114.18C410.68 114.18 408.46 113.77 406.13 112.94C403.8 112.08 402.07 111 400.93 109.69L404.31 102.71C405.26 103.7 406.5 104.52 408.02 105.17C409.54 105.78 410.98 106.09 412.33 106.09C414.59 106.09 416.21 105.56 417.18 104.49C418.18 103.4 418.69 101.65 418.71 99.25L418.71 95.93C416.79 98.45 414.28 99.71 411.19 99.71C407.08 99.71 403.89 98.12 401.64 94.94C399.41 91.73 398.27 87.21 398.22 81.39ZM408.3 78.54L408.3 81.07C408.3 84.64 408.76 87.24 409.69 88.88C410.62 90.49 412.09 91.3 414.11 91.3C416.18 91.3 417.72 90.55 418.71 89.06L418.71 70.63C417.66 68.99 416.16 68.17 414.19 68.17C412.19 68.17 410.7 68.99 409.73 70.63C408.78 72.27 408.3 74.91 408.3 78.54ZM457.4 60.18L457.29 70.16L453.94 69.88C451.19 69.88 449.32 71.09 448.35 73.51L448.35 99L438.22 99L438.22 60.43L447.74 60.43L448.03 64.6C449.62 61.35 451.81 59.72 454.62 59.72C455.76 59.72 456.69 59.87 457.4 60.18ZM491.99 99L481.83 99C481.54 98.41 481.26 97.41 480.98 96.01C479.17 98.48 476.72 99.71 473.63 99.71C470.4 99.71 467.72 98.64 465.58 96.5C463.46 94.37 462.4 91.6 462.4 88.2C462.4 84.16 463.68 81.04 466.25 78.83C468.84 76.62 472.56 75.49 477.41 75.44L480.48 75.44L480.48 72.34C480.48 70.61 480.18 69.38 479.59 68.67C478.99 67.96 478.12 67.6 476.98 67.6C474.47 67.6 473.21 69.07 473.21 72.02L463.12 72.02C463.12 68.45 464.45 65.52 467.11 63.21C469.8 60.88 473.18 59.72 477.27 59.72C481.5 59.72 484.76 60.82 487.07 63.03C489.4 65.22 490.56 68.35 490.56 72.44L490.56 90.59C490.61 93.92 491.09 96.52 491.99 98.39L491.99 99ZM475.88 91.8C476.99 91.8 477.94 91.57 478.73 91.12C479.52 90.67 480.1 90.14 480.48 89.52L480.48 81.5L478.05 81.5C476.34 81.5 474.99 82.05 473.99 83.14C473.02 84.23 472.53 85.69 472.53 87.52C472.53 90.37 473.65 91.8 475.88 91.8Z" />
		</g>
	</g>
</svg>